<svg width="113" height="55" viewBox="0 0 113 55" fill="none" xmlns="http://www.w3.org/2000/svg">
<path fill-rule="evenodd" clip-rule="evenodd" d="M6.64233 2.86586H97.0983C99.2846 2.86586 101.057 4.98449 101.057 7.59792V47.3568C101.057 49.9701 99.2846 52.0888 97.0983 52.0888H6.64233C4.45594 52.0888 2.68352 49.9701 2.68352 47.3568V7.59792C2.68352 4.98447 4.45594 2.86586 6.64233 2.86586ZM0.395752 7.59792C0.395752 3.47419 3.19244 0.131256 6.64233 0.131256H97.0983C100.548 0.131256 103.345 3.47419 103.345 7.59792V11.204C103.611 11.1159 103.891 11.0688 104.181 11.0688H109.373C111.098 11.0688 112.496 12.7402 112.496 14.8021V40.1507C112.496 42.2126 111.098 43.884 109.373 43.884H104.181C103.891 43.884 103.611 43.837 103.345 43.7487V47.3568C103.345 51.4804 100.548 54.8234 97.0983 54.8234H6.64233C3.19244 54.8234 0.395752 51.4804 0.395752 47.3568V7.59792Z" fill="#E43C0C"/>
</svg>
