<svg width="88" height="76" viewBox="0 0 88 76" fill="none" xmlns="http://www.w3.org/2000/svg">
<path fill-rule="evenodd" clip-rule="evenodd" d="M21.9998 10.8571L43.9999 21.7143L65.9999 10.8571L43.9998 0L21.9998 10.8571ZM24.1998 10.8571L43.9998 1.08571L63.7999 10.8571L43.9999 20.6286L24.1998 10.8571Z" fill="white"/>
<path fill-rule="evenodd" clip-rule="evenodd" d="M43.9998 21.7142L21.9999 32.5713V54.2856L44 65.1428L66 54.2856V32.5713L43.9998 21.7142ZM43.9998 22.7999L64.9 33.1141V53.7427L44 64.0569L23.0999 53.7427V33.1139L43.9998 22.7999Z" fill="white"/>
<path fill-rule="evenodd" clip-rule="evenodd" d="M88 43.4283L66 54.2856V75.9999L88 65.1426V43.4283ZM86.9 45.0569V64.5998L67.1 74.3713V54.8284L86.9 45.0569Z" fill="white"/>
<path fill-rule="evenodd" clip-rule="evenodd" d="M22 76L22 54.2856L0 43.4285L6.27328e-05 65.1428L22 76ZM20.9 74.3714L1.10006 64.6L1.09998 45.057L20.9 54.8285L20.9 74.3714Z" fill="white"/>
<path fill-rule="evenodd" clip-rule="evenodd" d="M43.9997 22.8L43.4499 23.0713V35.2352L43.9999 34.9637L44.5499 35.2352V23.0717L43.9997 22.8ZM35.4237 47.118L23.0999 53.2V53.7428L23.6499 54.0142L35.9735 47.9323L35.4237 47.6611V47.118ZM52.576 47.118V47.6609L52.026 47.9323L64.3499 54.0142L64.8999 53.7428V53.2L52.576 47.118Z" fill="white"/>
<path fill-rule="evenodd" clip-rule="evenodd" d="M43.9999 33.8779L34.3238 38.6532V48.2038L43.9999 52.9791L53.6761 48.2038V38.6532L43.9999 33.8779ZM43.9999 34.9636L52.5761 39.1961V47.661L43.9999 51.8934L35.4238 47.661L35.4236 39.1961L43.9999 34.9636Z" fill="white"/>
<path fill-rule="evenodd" clip-rule="evenodd" d="M35.9736 38.9246L35.4236 39.196V39.7388L43.4496 43.6997V51.6219L44 51.8935L44.5496 51.6223V43.6997L52.5761 39.7385V39.1962L52.0255 38.9246L43.9996 42.8854L35.9736 38.9246Z" fill="white"/>
</svg>
