<svg width="772" height="532" viewBox="0 0 772 532" fill="none" xmlns="http://www.w3.org/2000/svg">
<path d="M108.993 66.9986C80.5914 -10.0014 63.4127 55.0659 -2.64233 4.3308C-68.6974 -46.4043 -2.64233 531.499 -2.64233 531.499H589.789H763C797 531.499 717 452.999 671 432.999C625 412.999 578.5 337.999 557 329.999C535.5 321.999 474.563 327.108 450.825 305.499C427.086 283.889 369.678 339.499 344.826 305.499C319.975 271.499 305.774 278.999 288.023 226.999C270.272 174.999 203.833 153.499 203.833 153.499C203.833 153.499 137.394 143.999 108.993 66.9986Z" fill="black" stroke="black"/>
</svg>
