<svg width="1440" height="448" viewBox="0 0 1440 448" fill="none" xmlns="http://www.w3.org/2000/svg">
<path d="M128.5 184.731C84.6298 158.03 35.5123 157.166 0 184.731V447.597L1443.37 445.231V209.065C1490 130.5 1462.15 81.4155 1417 145.24C1371.85 209.066 1390 256 1317.5 247C1317.5 247 1272 209.065 1209.65 297.298C1147.3 385.53 1156.68 334.41 1116 347.5C1075.32 360.59 1041 226 983.5 226C926 226 891.273 302.892 862 297.298C832.727 291.704 801.538 355.851 782 347.5C762.462 339.149 704.5 347.5 667 274.5C629.5 201.5 651.5 209.065 581 145.24C510.5 81.4155 523.5 0 419 0C419 0 380 91 273.5 118C167 145 172.37 211.432 128.5 184.731Z" fill="black"/>
</svg>
