<svg width="1381" height="906" viewBox="0 0 1381 906" fill="none" xmlns="http://www.w3.org/2000/svg">
<path d="M206.246 723.388C192.492 734.611 132.387 786.846 2 906H1420.37L1443 374.508L1399.8 247.908C1399.8 247.908 1406.1 103.448 1344.5 55C1312.4 29.7532 1317 62 1246.5 18.5C1176 -25 1175.55 28.4584 1116 18.5C1116 18.5 1010 213.816 968.5 247.908C927 282 908.179 317.889 869.528 362.729C803.909 380.799 800 374.508 701.5 409C603 443.492 565.738 520.232 565.738 520.232L444.016 609.826L314.558 663.468L206.246 723.388Z" fill="black" stroke="black"/>
</svg>
